<svg width="70" height="14" viewBox="0 0 70 14" fill="none" xmlns="http://www.w3.org/2000/svg">
<path d="M6.33418 2.04889C6.54418 1.40419 7.45628 1.40419 7.66558 2.04889L8.41458 4.35329C8.46034 4.49364 8.5493 4.61592 8.66873 4.70267C8.78817 4.78941 8.93197 4.83618 9.07958 4.83629H11.503C12.1813 4.83629 12.4627 5.70429 11.9146 6.10329L9.95458 7.52709C9.83491 7.61391 9.74579 7.7364 9.70002 7.87699C9.65424 8.01758 9.65416 8.16905 9.69978 8.30969L10.4488 10.6141C10.6588 11.2588 9.92028 11.7957 9.37078 11.3967L7.41078 9.97289C7.29123 9.8861 7.14728 9.83935 6.99953 9.83935C6.85179 9.83935 6.70784 9.8861 6.58828 9.97289L4.62828 11.3967C4.07948 11.7957 3.34168 11.2588 3.55098 10.6141L4.29998 8.30969C4.34561 8.16905 4.34552 8.01758 4.29975 7.87699C4.25398 7.7364 4.16486 7.61391 4.04518 7.52709L2.08588 6.10399C1.53778 5.70499 1.81988 4.83699 2.49748 4.83699H4.92018C5.06792 4.83703 5.21188 4.79033 5.33145 4.70357C5.45103 4.61681 5.54009 4.49445 5.58588 4.35399L6.33488 2.04959L6.33418 2.04889Z" fill="#F0CC84"/>
<path d="M20.3342 2.04889C20.5442 1.40419 21.4563 1.40419 21.6656 2.04889L22.4146 4.35329C22.4603 4.49364 22.5493 4.61592 22.6687 4.70267C22.7882 4.78941 22.932 4.83618 23.0796 4.83629H25.503C26.1813 4.83629 26.4627 5.70429 25.9146 6.10329L23.9546 7.52709C23.8349 7.61391 23.7458 7.7364 23.7 7.87699C23.6542 8.01758 23.6542 8.16905 23.6998 8.30969L24.4488 10.6141C24.6588 11.2588 23.9203 11.7957 23.3708 11.3967L21.4108 9.97289C21.2912 9.8861 21.1473 9.83935 20.9995 9.83935C20.8518 9.83935 20.7078 9.8861 20.5883 9.97289L18.6283 11.3967C18.0795 11.7957 17.3417 11.2588 17.551 10.6141L18.3 8.30969C18.3456 8.16905 18.3455 8.01758 18.2998 7.87699C18.254 7.7364 18.1649 7.61391 18.0452 7.52709L16.0859 6.10399C15.5378 5.70499 15.8199 4.83699 16.4975 4.83699H18.9202C19.0679 4.83703 19.2119 4.79033 19.3315 4.70357C19.451 4.61681 19.5401 4.49445 19.5859 4.35399L20.3349 2.04959L20.3342 2.04889Z" fill="#F0CC84"/>
<path d="M34.3342 2.04889C34.5442 1.40419 35.4563 1.40419 35.6656 2.04889L36.4146 4.35329C36.4603 4.49364 36.5493 4.61592 36.6687 4.70267C36.7882 4.78941 36.932 4.83618 37.0796 4.83629H39.503C40.1813 4.83629 40.4627 5.70429 39.9146 6.10329L37.9546 7.52709C37.8349 7.61391 37.7458 7.7364 37.7 7.87699C37.6542 8.01758 37.6542 8.16905 37.6998 8.30969L38.4488 10.6141C38.6588 11.2588 37.9203 11.7957 37.3708 11.3967L35.4108 9.97289C35.2912 9.8861 35.1473 9.83935 34.9995 9.83935C34.8518 9.83935 34.7078 9.8861 34.5883 9.97289L32.6283 11.3967C32.0795 11.7957 31.3417 11.2588 31.551 10.6141L32.3 8.30969C32.3456 8.16905 32.3455 8.01758 32.2998 7.87699C32.254 7.7364 32.1649 7.61391 32.0452 7.52709L30.0859 6.10399C29.5378 5.70499 29.8199 4.83699 30.4975 4.83699H32.9202C33.0679 4.83703 33.2119 4.79033 33.3315 4.70357C33.451 4.61681 33.5401 4.49445 33.5859 4.35399L34.3349 2.04959L34.3342 2.04889Z" fill="#F0CC84"/>
<path d="M48.3342 2.04889C48.5442 1.40419 49.4563 1.40419 49.6656 2.04889L50.4146 4.35329C50.4603 4.49364 50.5493 4.61592 50.6687 4.70267C50.7882 4.78941 50.932 4.83618 51.0796 4.83629H53.503C54.1813 4.83629 54.4627 5.70429 53.9146 6.10329L51.9546 7.52709C51.8349 7.61391 51.7458 7.7364 51.7 7.87699C51.6542 8.01758 51.6542 8.16905 51.6998 8.30969L52.4488 10.6141C52.6588 11.2588 51.9203 11.7957 51.3708 11.3967L49.4108 9.97289C49.2912 9.8861 49.1473 9.83935 48.9995 9.83935C48.8518 9.83935 48.7078 9.8861 48.5883 9.97289L46.6283 11.3967C46.0795 11.7957 45.3417 11.2588 45.551 10.6141L46.3 8.30969C46.3456 8.16905 46.3455 8.01758 46.2998 7.87699C46.254 7.7364 46.1649 7.61391 46.0452 7.52709L44.0859 6.10399C43.5378 5.70499 43.8199 4.83699 44.4975 4.83699H46.9202C47.0679 4.83703 47.2119 4.79033 47.3315 4.70357C47.451 4.61681 47.5401 4.49445 47.5859 4.35399L48.3349 2.04959L48.3342 2.04889Z" fill="#F0CC84"/>
<path d="M62.3342 2.04889C62.5442 1.40419 63.4563 1.40419 63.6656 2.04889L64.4146 4.35329C64.4603 4.49364 64.5493 4.61592 64.6687 4.70267C64.7882 4.78941 64.932 4.83618 65.0796 4.83629H67.503C68.1813 4.83629 68.4627 5.70429 67.9146 6.10329L65.9546 7.52709C65.8349 7.61391 65.7458 7.7364 65.7 7.87699C65.6542 8.01758 65.6542 8.16905 65.6998 8.30969L66.4488 10.6141C66.6588 11.2588 65.9203 11.7957 65.3708 11.3967L63.4108 9.97289C63.2912 9.8861 63.1473 9.83935 62.9995 9.83935C62.8518 9.83935 62.7078 9.8861 62.5883 9.97289L60.6283 11.3967C60.0795 11.7957 59.3417 11.2588 59.551 10.6141L60.3 8.30969C60.3456 8.16905 60.3455 8.01758 60.2998 7.87699C60.254 7.7364 60.1649 7.61391 60.0452 7.52709L58.0859 6.10399C57.5378 5.70499 57.8199 4.83699 58.4975 4.83699H60.9202C61.0679 4.83703 61.2119 4.79033 61.3315 4.70357C61.451 4.61681 61.5401 4.49445 61.5859 4.35399L62.3349 2.04959L62.3342 2.04889Z" fill="#E6E6E6"/>
</svg>
